<?xml version="1.0" standalone="no"?>
<!DOCTYPE svg PUBLIC "-//W3C//DTD SVG 20010904//EN"
 "http://www.w3.org/TR/2001/REC-SVG-20010904/DTD/svg10.dtd">
<svg version="1.0" xmlns="http://www.w3.org/2000/svg"
 width="260.000000pt" height="260.000000pt" viewBox="0 0 260.000000 260.000000"
 preserveAspectRatio="xMidYMid meet">
<metadata>
Created by potrace 1.11, written by Peter Selinger 2001-2013
</metadata>
<g transform="translate(0.000000,260.000000) scale(0.100000,-0.100000)"
fill="#000000" stroke="none">
<path d="M48 2504 c-11 -23 -10 -29 11 -46 l24 -19 0 -819 0 -819 -24 -19
c-21 -18 -22 -22 -11 -47 12 -25 15 -27 65 -21 94 9 219 46 233 67 3 5 10 9
16 9 6 0 9 -3 6 -6 -3 -3 0 -29 8 -57 7 -29 16 -68 19 -87 3 -19 8 -42 10 -50
2 -8 7 -27 10 -42 3 -16 7 -38 10 -50 3 -13 18 -87 34 -165 32 -155 42 -182
69 -181 9 0 49 -5 87 -11 170 -29 177 -26 181 79 2 40 5 75 8 77 3 3 15 -15
28 -41 24 -51 27 -52 113 -62 33 -3 63 -8 66 -10 3 -2 15 3 27 11 20 15 20 21
20 397 0 211 -5 396 -10 413 -5 16 -12 46 -15 65 l-5 35 27 -25 c16 -14 45
-44 67 -67 21 -22 50 -44 64 -47 16 -4 85 13 202 50 97 30 184 57 192 59 51
11 81 32 86 60 1 6 14 51 29 100 14 50 28 110 31 135 2 25 6 65 9 90 6 54 13
117 20 185 3 28 7 59 9 70 3 11 5 23 5 27 1 4 7 13 14 20 32 33 67 87 65 99
-6 27 -54 59 -89 59 -11 0 -26 -6 -33 -12 -14 -14 -64 -55 -108 -88 -16 -12
-33 -42 -44 -73 -9 -28 -19 -56 -23 -62 -3 -5 -6 -14 -8 -20 -1 -5 -16 -48
-33 -95 -18 -47 -42 -114 -54 -150 -20 -56 -26 -65 -47 -65 -14 0 -23 5 -21
13 1 7 4 39 7 71 2 32 6 71 9 87 2 16 7 56 11 89 3 33 8 74 11 90 4 31 13 120
18 190 3 35 -3 48 -61 125 -36 47 -69 87 -73 90 -4 3 -9 10 -11 15 -2 6 -38
55 -79 109 l-75 97 -45 -5 c-83 -9 -135 -16 -160 -21 -13 -2 -42 -7 -65 -11
-22 -3 -47 -7 -55 -9 -14 -2 -71 16 -115 37 -12 5 -27 10 -35 12 -8 1 -32 10
-54 19 -21 9 -44 17 -51 17 -6 0 -15 3 -19 7 -3 4 -12 8 -19 9 -12 3 -228 79
-257 91 -8 3 -19 7 -25 9 -5 1 -43 12 -82 23 -93 27 -101 26 -115 -5z"/>
<path d="M1329 549 c-75 -38 -107 -102 -96 -196 5 -48 27 -85 70 -117 32 -23
128 -33 170 -17 22 9 27 17 27 46 0 31 -3 34 -17 27 -33 -16 -92 -14 -122 4
-93 55 -46 209 62 203 23 -1 50 -6 60 -11 15 -8 17 -3 17 31 0 22 -5 41 -12
44 -32 11 -126 4 -159 -14z"/>
<path d="M1577 483 c13 -49 25 -99 28 -113 3 -14 13 -54 23 -90 l17 -65 46 -3
c50 -3 46 -7 64 68 2 8 14 55 27 104 l23 90 30 -130 31 -129 44 -3 45 -3 25
93 c13 51 25 98 26 103 1 6 7 28 12 50 6 22 15 57 20 78 l10 37 -38 0 c-28 0
-40 -5 -44 -17 -4 -17 -26 -120 -32 -153 -12 -67 -16 -81 -22 -76 -3 4 -7 12
-8 19 -2 16 -44 187 -50 210 -4 12 -16 17 -44 17 -40 0 -48 -6 -55 -40 -5 -28
-56 -214 -59 -218 -2 -1 -13 48 -25 110 -31 159 -26 148 -75 148 l-43 0 24
-87z"/>
<path d="M2217 555 c-76 -26 -117 -87 -117 -170 0 -62 21 -107 65 -141 32 -24
47 -29 109 -30 41 -1 84 4 102 11 l31 14 1 90 0 91 -74 0 -74 0 0 -30 c0 -28
3 -30 35 -30 33 0 35 -2 35 -34 0 -40 -21 -52 -75 -42 -48 9 -73 48 -71 110 3
86 74 125 174 97 l32 -10 0 38 c0 35 -3 39 -31 45 -49 9 -100 6 -142 -9z"/>
</g>
</svg>
